# AST/ASF file generated using VICON BodyLanguage
# -----------------------------------------------
:version 1.10
:name VICON
:units
  mass 1.0
  length 0.45
  angle deg
:documentation
   .ast/.asf automatically generated from VICON data using
   VICON BodyBuilder and BodyLanguage model FoxedUp or BRILLIANT.MOD
:root
   order TX TY TZ RX RY RZ
   axis XYZ
   position 0 0 0  
   orientation 0 0 0 
:bonedata
  begin
     id 1 
     name lhipjoint
     direction 0.661853 -0.702389 0.261917 
     length 2.64193 
     axis 0 0 0  XYZ
  end
  begin
     id 2 
     name lfemur
     direction 0.34202 -0.939693 0  
     length 7.01722  
     axis 0 0 20  XYZ
    dof rx ry rz
    limits (-160.0 20.0)
           (-70.0 70.0)
           (-60.0 70.0)
  end
  begin
     id 3 
     name ltibia
     direction 0.34202 -0.939693 0   
     length 8.25008   
     axis 0 0 20   XYZ
    dof rx
    limits (-10.0 170.0)
  end
  begin
     id 4 
     name lfoot
     direction 0.0709916 -0.195048 0.978221   
     length 2.31941   
     axis -90 7.62852e-016 20   XYZ
    dof rx rz
    limits (-45.0 90.0)
           (-70.0 20.0)
  end
  begin
     id 5 
     name ltoes
     direction 1.53586e-011 -4.22017e-011 1   
     length 1.16486   
     axis -90 7.62852e-016 20   XYZ
    dof rx
    limits (-90.0 20.0)
  end
  begin
     id 6 
     name rhipjoint
     direction -0.638185 -0.721362 0.268992   
     length 2.57244  
     axis 0 0 0  XYZ 
  end
  begin
     id 7 
     name rfemur
     direction -0.34202 -0.939693 0   
     length 7.07017   
     axis 0 0 -20   XYZ
    dof rx ry rz
    limits (-160.0 20.0)
           (-70.0 70.0)
           (-70.0 60.0)
  end
  begin
     id 8 
     name rtibia
     direction -0.34202 -0.939693 0   
     length 8.20386   
     axis 0 0 -20   XYZ
    dof rx
    limits (-10.0 170.0)
 end
 begin
     id 9 
     name rfoot
     direction -0.0822429 -0.225961 0.970658   
     length 2.32215  
     axis -90 -7.62852e-016 -20   XYZ
    dof rx rz
    limits (-45.0 90.0)
           (-20.0 70.0)
  end
  begin
     id 10 
     name rtoes
     direction -1.53597e-011 -4.21689e-011 1   
     length 1.16333   
     axis -90 -7.62852e-016 -20   XYZ
    dof rx
    limits (-90.0 20.0)
  end
  begin
     id 11 
     name lowerback
     direction -0.0131557 0.998589 -0.0514484   
     length 2.14993   
     axis 0 0 0   XYZ
    dof rx ry rz
    limits (-20.0 45.0)
           (-30.0 30.0)
           (-30.0 30.0)
  end
  begin
     id 12 
     name upperback
     direction -0.000776481 0.999993 0.00352685   
     length 2.15301   
     axis 0 0 0   XYZ
    dof rx ry rz
    limits (-20.0 45.0)
           (-30.0 30.0)
           (-30.0 30.0)
  end
  begin
     id 13 
     name thorax
     direction 0.00438186 0.999609 0.0276143   
     length 2.15424   
     axis 0 0 0   XYZ
    dof rx ry rz
    limits (-20.0 45.0)
           (-30.0 30.0)
           (-30.0 30.0)
  end
  begin
     id 14 
     name lowerneck
     direction -0.0488006 0.998094 0.0377807   
     length 1.90481   
     axis 0 0 0   XYZ
    dof rx ry rz
    limits (-20.0 45.0)
           (-30.0 30.0)
           (-30.0 30.0)
  end
  begin
     id 15 
     name upperneck
     direction 0.0443769 0.990702 -0.12861   
     length 1.91305   
     axis 0 0 0   XYZ
    dof rx ry rz
    limits (-20.0 45.0)
           (-30.0 30.0)
           (-30.0 30.0)
  end
  begin
     id 16
     name head
     direction 0.0165599 0.998647 -0.0492982  
     length 1.92369  
     axis 0 0 0   XYZ
    dof rx ry rz
    limits (-20.0 45.0)
           (-30.0 30.0)
           (-30.0 30.0)
  end
  begin
     id 17 
     name lclavicle
     direction 0.911936 0.410197 -0.0105506  
     length 3.52622  
     axis 0 0 0   XYZ
    dof ry rz
    limits (-20.0 10.0)
           (0.0 20.0)
  end
  begin
     id 18 
     name lhumerus
     direction 1 -4.48974e-011 -2.48591e-028   
     length 5.47651   
     axis 180 -30 -90   XYZ
    dof rx ry rz
    limits (-60.0 90.0)
           (-90.0 90.0)
           (-90.0 90.0)
  end
  begin
     id 19
     name lradius
     direction 1 -4.48938e-011 -4.40099e-027   
     length 3.09058   
     axis 180 -30 -90   XYZ
    dof rx
    limits (-10.0 170.0)
  end
  begin
     id 20
     name lwrist
     direction 1 -4.49042e-011 -2.99852e-027   
     length 1.54529   
     axis 1.95339e-015 90 90   XYZ
    dof ry
    limits (-180.0 0.0)
 end
  begin
     id 21 
     name lhand
     direction 1 -4.48815e-011 -5.98193e-027   
     length 0.771611   
     axis 3.82337e-015 90 90   XYZ
    dof rx rz
    limits (-90.0 90.0)
           (-45.0 45.0)
  end
  begin
     id 22 
     name lfingers
     direction 1 -4.49034e-011 -1.1993e-026   
     length 0.622093   
     axis 7.64668e-015 90 90   XYZ
    dof rx
    limits (0.0 90.0)
  end
  begin
     id 23
     name lthumb
     direction 0.707107 -6.34867e-011 0.707107   
     length 0.893204   
     axis -90 45 -1.62303e-014   XYZ
    dof rx rz
    limits (-45.0 45.0)
           (-45.0 45.0)
  end
  begin
     id 24 
     name rclavicle
     direction -0.93442 0.355634 -0.0195692   
     length 3.62463  
     axis 0 0 0   XYZ 
    dof ry rz
    limits (-10.0 20.0)
           (-20.0 0.0)
  end
  begin
     id 25 
     name rhumerus
     direction -1 -4.48957e-011 -1.19147e-027  
     length 5.14182   
     axis 180 30 90   XYZ
    dof rx ry rz
    limits (-90.0 60.0)
           (-90.0 90.0)
           (-90.0 90.0)
  end
  begin
     id 26 
     name rradius
     direction -1 -4.48952e-011 -3.81062e-027   
     length 3.35565   
     axis 180 30 90   XYZ
    dof rx
    limits (-10.0 170.0)
  end
  begin
     id 27 
     name rwrist
     direction -1 -4.48973e-011 -2.99621e-027   
     length 1.67782   
     axis 1.95339e-015 -90 -90   XYZ
    dof ry
    limits (-180.0 0.0)
  end
  begin
     id 28
     name rhand
     direction -1 -4.48895e-011 -5.98727e-027   
     length 0.801042   
     axis 3.82337e-015 -90 -90   XYZ
    dof rx rz
    limits (-90.0 90.0)
           (-45.0 45.0)
  end
  begin
     id 29
     name rfingers
     direction -1 -4.49065e-011 -1.19972e-026   
     length 0.645821   
     axis 7.64668e-015 -90 -90   XYZ
    dof rx
    limits (0.0 90.0)
  end
  begin
     id 30
     name rthumb
     direction -0.707107 -6.34957e-011 0.707107   
     length 0.927273   
     axis -90 -45 1.62303e-014   XYZ
    dof rx rz
    limits (-45.0 45.0)
           (-45.0 45.0)
  end
:hierarchy
  begin
    root lhipjoint rhipjoint lowerback
    lhipjoint lfemur
    lfemur ltibia
    ltibia lfoot
    lfoot ltoes
    rhipjoint rfemur
    rfemur rtibia
    rtibia rfoot
    rfoot rtoes
    lowerback upperback
    upperback thorax
    thorax lowerneck lclavicle rclavicle
    lowerneck upperneck
    upperneck head
    lclavicle lhumerus
    lhumerus lradius
    lradius lwrist
    lwrist lhand lthumb
    lhand lfingers
    rclavicle rhumerus
    rhumerus rradius
    rradius rwrist
    rwrist rhand rthumb
    rhand rfingers
  end

#!OML:ASF E:\Style4\Style4.ASF
:FULLY-SPECIFIED
:DEGREES
693
root -0.875693 17.5827 -0.257004 2.74001 25.5425 2.70785
lowerback 6.96852 3.33569 0.277664
upperback 4.00993 4.47384 -0.912133
thorax 0.333204 2.26532 -1.38049
lowerneck 0.548704 -5.5769 -5.53896
upperneck 9.17978 -7.70174 5.10892
head 3.35915 -3.82962 2.42961
rclavicle 4.23908e-014 -6.55989e-015
rhumerus 55.1215 -24.2148 -9.13996
rradius 63.9377
rwrist -37.3529
rhand 10.7106 8.02102
rfingers 7.12502
rthumb 35.8 -18.3444
lclavicle 4.23908e-014 -6.55989e-015
lhumerus 54.5321 28.3159 10.3364
lradius 72.773
lwrist 32.9719
lhand 11.3373 27.1956
lfingers 7.12502
lthumb 36.3936 53.4144
rfemur -13.9106 -18.5822 20.2777
rtibia 37.8229
rfoot -27.0224 -24.6439
rtoes -3.53412
lfemur -20.6016 -9.1375 -17.5814
ltibia 34.4241
lfoot -14.8872 -0.98816
ltoes -17.814
694
root -0.879289 17.5738 -0.265711 2.64089 25.4965 2.67719
lowerback 7.06175 3.3065 0.265677
upperback 4.10578 4.43563 -0.853636
thorax 0.374127 2.24633 -1.31395
lowerneck 0.607533 -5.56584 -5.58045
upperneck 8.96696 -7.68358 5.11751
head 3.27585 -3.8238 2.44318
rclavicle 3.42904e-015 -7.7526e-015
rhumerus 55.3853 -24.4344 -9.35035
rradius 63.8318
rwrist -36.8837
rhand 10.4555 8.01253
rfingers 7.12502
rthumb 35.5582 -18.4113
lclavicle 3.42904e-015 -7.7526e-015
lhumerus 54.8465 28.4534 10.7569
lradius 72.6389
lwrist 32.7002
lhand 11.5814 27.3133
lfingers 7.12502
lthumb 36.6246 53.4739
rfemur -13.9746 -18.5878 20.2818
rtibia 38.0083
rfoot -27.0012 -24.6696
rtoes -3.88775
lfemur -20.645 -9.0555 -17.563
ltibia 34.6362
lfoot -15.0244 -0.940175
ltoes -18.3371
695
root -0.880714 17.5651 -0.274003 2.62088 25.4318 2.78201
lowerback 7.12914 3.3135 0.192681
upperback 4.17364 4.44148 -0.882841
thorax 0.404058 2.24915 -1.30551
lowerneck 0.807349 -5.59152 -5.47909
upperneck 8.68529 -7.72244 5.14639
head 3.13995 -3.8429 2.43976
rclavicle -2.66371e-014 1.05356e-014
rhumerus 55.504 -24.5934 -9.54856
rradius 63.719
rwrist -36.4069
rhand 10.2982 7.93773
rfingers 7.12502
rthumb 35.4091 -18.5218
lclavicle -2.66371e-014 1.05356e-014
lhumerus 55.1169 28.4849 10.9741
lradius 72.5586
lwrist 32.623
lhand 11.5932 27.2584
lfingers 7.12502
lthumb 36.6359 53.4161
rfemur -14.0831 -18.6146 20.139
rtibia 38.2382
rfoot -27.0617 -24.6111
rtoes -4.11044
lfemur -20.6961 -9.00635 -17.6909
ltibia 34.8375
lfoot -15.1522 -0.872278
ltoes -18.6596
696
root -0.880329 17.5568 -0.280454 2.60484 25.3715 2.84443
lowerback 7.15828 3.30795 0.175972
upperback 4.23245 4.43399 -0.909924
thorax 0.449523 2.2462 -1.32306
lowerneck 0.98288 -5.59813 -5.3615
upperneck 8.43211 -7.73334 5.15209
head 3.01519 -3.84805 2.42603
rclavicle -4.80065e-014 8.94531e-015
rhumerus 55.6236 -24.6975 -9.77455
rradius 63.5867
rwrist -35.9725
rhand 10.2454 7.9922
rfingers 7.12502
rthumb 35.359 -18.4793
lclavicle -4.80065e-014 8.94531e-015
lhumerus 55.3459 28.4519 11.1276
lradius 72.4774
lwrist 32.5715
lhand 11.377 27.3395
lfingers 7.12502
lthumb 36.4312 53.5489
rfemur -14.1997 -18.6988 20.0442
rtibia 38.5158
rfoot -27.0713 -24.5477
rtoes -4.31732
lfemur -20.7686 -8.95509 -17.7723
ltibia 35.0426
lfoot -15.2028 -0.965992
ltoes -18.1821
697
root -0.880325 17.5456 -0.290998 2.53024 25.3311 2.91709
lowerback 7.27758 3.29295 0.164147
upperback 4.31907 4.41435 -0.91859
thorax 0.472666 2.23724 -1.3285
lowerneck 1.07251 -5.59457 -5.45307
upperneck 8.22472 -7.73432 5.2758
head 2.93957 -3.85059 2.48788
rclavicle 1.12711e-013 -2.82274e-014
rhumerus 55.7402 -24.7823 -9.94435
rradius 63.4351
rwrist -35.5438
rhand 10.1157 8.14882
rfingers 7.12502
rthumb 35.2361 -18.3518
lclavicle 1.12711e-013 -2.82274e-014
lhumerus 55.6125 28.3705 11.3586
lradius 72.3343
lwrist 32.428
lhand 11.281 27.6798
lfingers 7.12502
lthumb 36.3403 53.9119
rfemur -14.2682 -18.8081 19.9073
rtibia 38.8251
rfoot -27.2041 -24.3823
rtoes -4.12458
lfemur -20.7945 -8.89272 -17.8806
ltibia 35.2756
lfoot -15.2503 -0.991963
ltoes -18.4804
698
root -0.882101 17.5306 -0.305416 2.46918 25.2993 2.95945
lowerback 7.39852 3.26102 0.146253
upperback 4.39387 4.37159 -0.898062
thorax 0.479374 2.21601 -1.29973
lowerneck 1.0932 -5.59765 -5.53092
upperneck 8.0937 -7.73957 5.34158
head 2.8992 -3.85502 2.5253
rclavicle -4.17448e-014 3.57812e-015
rhumerus 55.9109 -24.8091 -10.1391
rradius 63.3142
rwrist -35.1385
rhand 10.0218 8.23975
rfingers 7.12502
rthumb 35.147 -18.2819
lclavicle -4.17448e-014 3.57812e-015
lhumerus 55.7131 28.2501 11.4273
lradius 72.2683
lwrist 32.3343
lhand 11.3014 27.9074
lfingers 7.12502
lthumb 36.3596 54.1347
rfemur -14.4217 -18.9054 19.8226
rtibia 39.1487
rfoot -27.2332 -24.3173
rtoes -4.30564
lfemur -20.8924 -8.81872 -17.9493
ltibia 35.5403
lfoot -15.2831 -1.02966
ltoes -18.6376
699
root -0.884158 17.5169 -0.317779 2.37403 25.2539 2.95863
lowerback 7.50716 3.22107 0.127084
upperback 4.48024 4.31833 -0.841026
thorax 0.501686 2.1891 -1.23082
lowerneck 1.00539 -5.59516 -5.55013
upperneck 8.07188 -7.72742 5.27577
head 2.90449 -3.85032 2.50464
rclavicle -2.50469e-014 5.1684e-015
rhumerus 56.1307 -24.7629 -10.3317
rradius 63.2356
rwrist -34.8637
rhand 9.84986 8.2595
rfingers 7.12502
rthumb 34.9839 -18.3003
lclavicle -2.50469e-014 5.1684e-015
lhumerus 55.754 28.1 11.5009
lradius 72.1756
lwrist 32.1556
lhand 11.408 27.909
lfingers 7.12502
lthumb 36.4606 54.111
rfemur -14.5432 -19.0043 19.7723
rtibia 39.4652
rfoot -27.2929 -24.1791
rtoes -4.43383
lfemur -20.9896 -8.76607 -17.9723
ltibia 35.819
lfoot -15.3964 -1.01459
ltoes -18.7531
700
root -0.886256 17.507 -0.32707 2.26106 25.2085 2.92709
lowerback 7.56471 3.1683 0.110282
upperback 4.58853 4.24886 -0.772323
thorax 0.573888 2.15425 -1.14602
lowerneck 0.998975 -5.56661 -5.57336
upperneck 7.91003 -7.68333 5.25914
head 2.84805 -3.83047 2.5054
rclavicle 5.93372e-014 -1.98785e-015
rhumerus 56.3466 -24.6287 -10.5205
rradius 63.1618
rwrist -34.6549
rhand 9.59897 8.37744
rfingers 7.12502
rthumb 34.7459 -18.2376
lclavicle 5.93372e-014 -1.98785e-015
lhumerus 55.7603 27.9053 11.5403
lradius 72.0384
lwrist 31.9109
lhand 11.5261 27.9234
lfingers 7.12502
lthumb 36.5724 54.0972
rfemur -14.6218 -19.082 19.765
rtibia 39.7836
rfoot -27.4098 -24.0502
rtoes -4.37355
lfemur -21.0517 -8.73658 -17.9542
ltibia 36.0778
lfoot -15.5719 -0.930389
ltoes -19.2493
701
root -0.89057 17.4974 -0.334585 2.15035 25.1548 2.89845
lowerback 7.60346 3.15576 0.0869879
upperback 4.68368 4.23225 -0.717046
thorax 0.644733 2.14572 -1.0742
lowerneck 1.06624 -5.60175 -5.52761
upperneck 7.72755 -7.72549 5.213
head 2.77148 -3.85302 2.48295
rclavicle -4.27387e-015 1.86858e-014
rhumerus 56.415 -24.4268 -10.5953
rradius 63.0282
rwrist -34.546
rhand 9.41437 8.54256
rfingers 7.12502
rthumb 34.5707 -18.1127
lclavicle -4.27387e-015 1.86858e-014
lhumerus 55.8003 27.5874 11.5363
lradius 71.9398
lwrist 31.6713
lhand 11.6529 27.9533
lfingers 7.12502
lthumb 36.6923 54.0966
rfemur -14.6639 -19.0804 19.7807
rtibia 40.0678
rfoot -27.6476 -23.9008
rtoes -4.03665
lfemur -21.0963 -8.65999 -17.9299
ltibia 36.3155
lfoot -15.6604 -0.927832
ltoes -19.3137
702
root -0.895079 17.4873 -0.342674 2.06898 25.1016 2.97455
lowerback 7.6461 3.17561 0.00688348
upperback 4.77826 4.25523 -0.716379
thorax 0.713805 2.15658 -1.02972
lowerneck 0.998853 -5.6708 -5.56892
upperneck 7.71912 -7.81852 5.26891
head 2.79213 -3.89827 2.5044
rclavicle -1.30701e-013 4.41302e-014
rhumerus 56.4267 -24.1745 -10.6077
rradius 62.7758
rwrist -34.4306
rhand 9.27948 8.49192
rfingers 7.12502
rthumb 34.4426 -18.1925
lclavicle -1.30701e-013 4.41302e-014
lhumerus 55.9949 27.1612 11.6491
lradius 71.8347
lwrist 31.4942
lhand 11.8605 28.0577
lfingers 7.12502
lthumb 36.8887 54.1508
rfemur -14.6973 -19.0947 19.6827
rtibia 40.3033
rfoot -27.717 -23.8805
rtoes -4.19918
lfemur -21.1131 -8.55852 -18.0096
ltibia 36.544
lfoot -15.6933 -1.10112
ltoes -18.4962
703
root -0.898715 17.4775 -0.349683 1.9065 25.0242 2.97466
lowerback 7.70897 3.17556 -0.0334648
upperback 4.8846 4.25428 -0.681644
thorax 0.783755 2.15582 -0.971615
lowerneck 0.728694 -5.67002 -5.72725
upperneck 7.87753 -7.81889 5.40581
head 2.91184 -3.89552 2.57114
rclavicle -4.32357e-014 1.39149e-014
rhumerus 56.4565 -23.812 -10.5973
rradius 62.5484
rwrist -34.3835
rhand 9.24832 8.37745
rfingers 7.12502
rthumb 34.413 -18.3137
lclavicle -4.32357e-014 1.39149e-014
lhumerus 56.0921 26.7168 11.651
lradius 71.6894
lwrist 31.5196
lhand 12.1309 28.0593
lfingers 7.12502
lthumb 37.1445 54.0862
rfemur -14.6761 -19.0943 19.6233
rtibia 40.4907
rfoot -27.6629 -23.902
rtoes -4.53871
lfemur -21.0734 -8.44365 -18.0345
ltibia 36.7742
lfoot -15.8045 -1.16625
ltoes -18.6863
